<svg xmlns="http://www.w3.org/2000/svg" width="480" height="132" viewBox="0 0 480 132" role="img" aria-labelledby="title desc">
<title id="title">wangzhigang1999: 149 contributions, 24 active days in the last 28 days</title>
<desc id="desc">Updated 2026-10-02 UTC. Contributions are not commits. Best streak is limited to this 28-day window.</desc>
<rect x=".5" y=".5" width="479" height="131" rx="12" fill="#fff" stroke="#dfe5df"/>
<text x="20" y="25" font-size="13" fill="#34473a" font-weight="600" font-family="Segoe UI,Arial,sans-serif">GitHub activity</text>
<text x="369" y="25" font-size="11" fill="#68776e" font-weight="400" font-family="Segoe UI,Arial,sans-serif">Last 28 days</text>
<path d="M135 46v42 M249 46v42" stroke="#e8ece7"/>
<text x="20" y="69" font-size="30" fill="#365744" font-weight="600" font-family="Segoe UI,Arial,sans-serif">149</text>
<text x="20" y="88" font-size="11" fill="#68776e" font-weight="400" font-family="Segoe UI,Arial,sans-serif">contributions</text>
<text x="153" y="69" font-size="30" fill="#365744" font-weight="600" font-family="Segoe UI,Arial,sans-serif">24</text>
<text x="153" y="88" font-size="11" fill="#68776e" font-weight="400" font-family="Segoe UI,Arial,sans-serif">active days</text>
<text x="267" y="69" font-size="30" fill="#365744" font-weight="600" font-family="Segoe UI,Arial,sans-serif">19</text>
<text x="267" y="88" font-size="11" fill="#68776e" font-weight="400" font-family="Segoe UI,Arial,sans-serif">best streak · days</text>
<rect x="369" y="41" width="10" height="10" rx="2" fill="#bac9a9"><title>2026-09-05: 1 contributions</title></rect>
<rect x="382" y="41" width="10" height="10" rx="2" fill="#d9dfcf"><title>2026-09-06: 0 contributions</title></rect>
<rect x="395" y="41" width="10" height="10" rx="2" fill="#bac9a9"><title>2026-09-07: 4 contributions</title></rect>
<rect x="408" y="41" width="10" height="10" rx="2" fill="#bac9a9"><title>2026-09-08: 3 contributions</title></rect>
<rect x="421" y="41" width="10" height="10" rx="2" fill="#bac9a9"><title>2026-09-09: 4 contributions</title></rect>
<rect x="434" y="41" width="10" height="10" rx="2" fill="#bac9a9"><title>2026-09-10: 2 contributions</title></rect>
<rect x="447" y="41" width="10" height="10" rx="2" fill="#d9dfcf"><title>2026-09-11: 0 contributions</title></rect>
<rect x="369" y="54" width="10" height="10" rx="2" fill="#d9dfcf"><title>2026-09-12: 0 contributions</title></rect>
<rect x="382" y="54" width="10" height="10" rx="2" fill="#d9dfcf"><title>2026-09-13: 0 contributions</title></rect>
<rect x="395" y="54" width="10" height="10" rx="2" fill="#8da780"><title>2026-09-14: 7 contributions</title></rect>
<rect x="408" y="54" width="10" height="10" rx="2" fill="#bac9a9"><title>2026-09-15: 3 contributions</title></rect>
<rect x="421" y="54" width="10" height="10" rx="2" fill="#bac9a9"><title>2026-09-16: 3 contributions</title></rect>
<rect x="434" y="54" width="10" height="10" rx="2" fill="#bac9a9"><title>2026-09-17: 5 contributions</title></rect>
<rect x="447" y="54" width="10" height="10" rx="2" fill="#bac9a9"><title>2026-09-18: 2 contributions</title></rect>
<rect x="369" y="67" width="10" height="10" rx="2" fill="#bac9a9"><title>2026-09-19: 5 contributions</title></rect>
<rect x="382" y="67" width="10" height="10" rx="2" fill="#8da780"><title>2026-09-20: 9 contributions</title></rect>
<rect x="395" y="67" width="10" height="10" rx="2" fill="#8da780"><title>2026-09-21: 6 contributions</title></rect>
<rect x="408" y="67" width="10" height="10" rx="2" fill="#bac9a9"><title>2026-09-22: 1 contributions</title></rect>
<rect x="421" y="67" width="10" height="10" rx="2" fill="#bac9a9"><title>2026-09-23: 4 contributions</title></rect>
<rect x="434" y="67" width="10" height="10" rx="2" fill="#344b38"><title>2026-09-24: 22 contributions</title></rect>
<rect x="447" y="67" width="10" height="10" rx="2" fill="#344b38"><title>2026-09-25: 20 contributions</title></rect>
<rect x="369" y="80" width="10" height="10" rx="2" fill="#8da780"><title>2026-09-26: 11 contributions</title></rect>
<rect x="382" y="80" width="10" height="10" rx="2" fill="#bac9a9"><title>2026-09-27: 3 contributions</title></rect>
<rect x="395" y="80" width="10" height="10" rx="2" fill="#8da780"><title>2026-09-28: 9 contributions</title></rect>
<rect x="408" y="80" width="10" height="10" rx="2" fill="#8da780"><title>2026-09-29: 7 contributions</title></rect>
<rect x="421" y="80" width="10" height="10" rx="2" fill="#bac9a9"><title>2026-09-30: 1 contributions</title></rect>
<rect x="434" y="80" width="10" height="10" rx="2" fill="#5e7b59"><title>2026-10-01: 13 contributions</title></rect>
<rect x="447" y="80" width="10" height="10" rx="2" fill="#bac9a9"><title>2026-10-02: 4 contributions</title></rect>
<text x="20" y="115" font-size="10" fill="#68776e" font-weight="400" font-family="Segoe UI,Arial,sans-serif">09/05 – 10/02</text>
<text x="369" y="115" font-size="10" fill="#68776e" font-weight="400" font-family="Segoe UI,Arial,sans-serif">Daily update</text>
</svg>
